<svg width="11" height="11" viewBox="0 0 11 11" fill="none" xmlns="http://www.w3.org/2000/svg">
<path fill-rule="evenodd" clip-rule="evenodd" d="M10.7907 0.90957C11.0984 1.26126 11.0628 1.79581 10.7111 2.10354L6.47483 5.81027L10.7111 9.51699C11.0628 9.82472 11.0984 10.3593 10.7907 10.711C10.483 11.0627 9.9484 11.0983 9.59672 10.7906L4.6327 6.44705C4.44908 6.28638 4.34375 6.05426 4.34375 5.81027C4.34375 5.56627 4.44908 5.33415 4.6327 5.17348L9.59672 0.829971C9.9484 0.522246 10.483 0.557883 10.7907 0.90957Z" fill="#FF5E54"/>
<path fill-rule="evenodd" clip-rule="evenodd" d="M0.209313 0.90957C-0.098412 1.26126 -0.0627747 1.79581 0.288911 2.10354L4.52517 5.81027L0.288911 9.51699C-0.0627747 9.82472 -0.098412 10.3593 0.209313 10.711C0.517039 11.0627 1.0516 11.0983 1.40328 10.7906L6.3673 6.44705C6.55092 6.28638 6.65625 6.05426 6.65625 5.81027C6.65625 5.56627 6.55092 5.33415 6.3673 5.17348L1.40328 0.829971C1.0516 0.522246 0.517039 0.557883 0.209313 0.90957Z" fill="#FF5E54"/>
</svg>
